<svg xmlns="http://www.w3.org/2000/svg" viewBox="0 0 128 128" role="img" aria-label="Fictional profile illustration FQ">
<rect width="128" height="128" rx="28" fill="#DDE8E2"/>
<circle cx="103" cy="25" r="17" fill="#245B50" opacity=".35"/>
<circle cx="22" cy="104" r="24" fill="#D7A24A" opacity=".22"/>
<path d="M42 48c5-19 39-22 45 2-9-6-30-8-45-2z" fill="#3E2A22"/>
<path d="M27 128c3-29 18-44 37-44s34 15 37 44" fill="#FFFFFF"/>
<ellipse cx="64" cy="60" rx="23" ry="28" fill="#D5A879"/>
<path d="M42 54c3-22 41-25 45 1-13-7-31-8-45-1z" fill="#3E2A22" opacity="1"/>
<circle cx="56" cy="61" r="2" fill="#302421"/><circle cx="73" cy="61" r="2" fill="#302421"/>
<path d="M58 73c4 3 9 3 13 0" fill="none" stroke="#7A4938" stroke-width="2" stroke-linecap="round"/>
<circle cx="102" cy="101" r="18" fill="#0B5D46" stroke="#F8F4E8" stroke-width="3"/>
<text x="102" y="106" text-anchor="middle" font-family="Arial,sans-serif" font-size="13" font-weight="700" fill="white">FQ</text>
</svg>